<svg width="180" height="180" viewBox="0 0 180 180" fill="none" xmlns="http://www.w3.org/2000/svg">
  <defs>
    <linearGradient id="bg" x1="0" y1="0" x2="180" y2="180" gradientUnits="userSpaceOnUse">
      <stop stop-color="#1a0000"/>
      <stop offset="1" stop-color="#050000"/>
    </linearGradient>
    <linearGradient id="sil" x1="90" y1="15" x2="90" y2="168" gradientUnits="userSpaceOnUse">
      <stop stop-color="#FFD700"/>
      <stop offset="1" stop-color="#8B0000"/>
    </linearGradient>
  </defs>
  <rect width="180" height="180" rx="36" fill="url(#bg)"/>
  <!-- Woman silhouette kneeling, side view -->
  <!-- Head -->
  <circle cx="112" cy="36" r="18" fill="url(#sil)"/>
  <!-- Long flowing hair behind head -->
  <path d="M 100 24 C 82 20 58 24 44 38 C 32 50 32 68 42 80 C 50 90 62 90 70 82 C 60 82 52 72 56 60 C 60 46 76 38 94 42 Z" fill="url(#sil)"/>
  <!-- Neck -->
  <rect x="104" y="52" width="14" height="16" rx="4" fill="url(#sil)"/>
  <!-- Torso / upper body -->
  <path d="M 96 66 C 88 70 80 84 78 102 C 76 116 78 128 84 138 L 126 138 C 132 128 134 116 132 102 C 130 84 122 70 114 66 Z" fill="url(#sil)"/>
  <!-- Bust curve (feminine) -->
  <path d="M 128 80 C 138 88 142 104 138 118 C 136 126 130 132 126 138 L 116 138 C 122 128 128 116 130 104 C 132 92 130 84 124 78 Z" fill="url(#sil)"/>
  <!-- Kneeling legs - thighs going forward -->
  <path d="M 84 138 C 76 140 56 144 48 152 C 42 158 44 166 52 168 L 128 168 C 136 168 140 162 136 156 C 128 146 110 140 98 138 Z" fill="url(#sil)"/>
  <!-- Lower legs folded back (kneeling) -->
  <path d="M 48 152 C 36 152 28 158 28 164 C 28 168 34 170 42 168 L 52 168 C 48 164 44 160 48 152 Z" fill="url(#sil)"/>
  <!-- Arm reaching forward -->
  <path d="M 84 88 C 72 96 58 110 52 126 C 48 136 52 142 60 140 C 66 138 70 130 76 120 C 82 108 90 96 96 90 Z" fill="url(#sil)"/>
</svg>
