<svg width="180" height="180" viewBox="0 0 180 180" fill="none" xmlns="http://www.w3.org/2000/svg">
  <defs>
    <linearGradient id="bg" x1="0" y1="0" x2="180" y2="180" gradientUnits="userSpaceOnUse">
      <stop stop-color="#1a0000"/>
      <stop offset="1" stop-color="#050000"/>
    </linearGradient>
    <linearGradient id="sil" x1="145" y1="22" x2="18" y2="168" gradientUnits="userSpaceOnUse">
      <stop stop-color="#FFD700"/>
      <stop offset="1" stop-color="#8B0000"/>
    </linearGradient>
  </defs>
  <rect width="180" height="180" rx="36" fill="url(#bg)"/>

  <!-- Head -->
  <ellipse cx="132" cy="40" rx="14" ry="16" fill="url(#sil)"/>

  <!-- Hair - long flowing behind and down -->
  <path d="M 122 26 Q 102 10 78 14 Q 54 18 42 38 Q 32 54 38 70 Q 44 82 58 80 Q 48 70 50 54 Q 56 36 76 28 Q 98 20 116 36 Z" fill="url(#sil)"/>

  <!-- Neck -->
  <path d="M 120 54 C 116 58 114 64 116 70 C 118 74 125 75 129 70 C 133 65 132 57 128 53 Z" fill="url(#sil)"/>

  <!-- Upper torso — reclining diagonally upper-right to center -->
  <path d="M 122 65 C 134 73 140 89 136 107 C 132 121 118 131 102 134 C 88 136 74 133 64 126 C 56 120 54 110 60 100 C 66 90 80 84 94 80 C 108 76 118 70 120 64 Z" fill="url(#sil)"/>

  <!-- Bust curve — feminine front -->
  <path d="M 82 84 C 68 92 58 106 58 120 C 58 128 66 134 76 130 C 68 124 66 112 70 100 C 74 90 84 84 96 84 Z" fill="url(#sil)"/>

  <!-- Right arm propping body — angled lower-right toward ground -->
  <path d="M 130 102 C 140 112 148 126 146 138 C 144 146 136 148 130 144 C 124 140 120 128 120 116 C 120 104 124 98 130 100 Z" fill="url(#sil)"/>

  <!-- Wrist/hand resting on ground -->
  <ellipse cx="143" cy="144" rx="9" ry="6" transform="rotate(-20 143 144)" fill="url(#sil)"/>

  <!-- Hip — wide, sweeping lower-center-left -->
  <path d="M 58 118 C 44 116 28 118 18 128 C 12 136 14 148 28 152 C 46 158 72 154 90 144 C 103 136 105 122 92 116 C 80 110 66 114 58 118 Z" fill="url(#sil)"/>

  <!-- Upper legs extending lower-left -->
  <path d="M 22 144 C 10 142 2 148 2 158 C 2 164 12 168 26 166 C 42 164 56 155 52 144 C 48 136 34 138 22 144 Z" fill="url(#sil)"/>

  <!-- Lower leg — bent, curving back right -->
  <path d="M 4 156 C 0 162 0 170 6 174 C 12 178 24 176 32 168 C 38 160 36 150 28 148 Z" fill="url(#sil)"/>

  <!-- Left arm raised elegantly upward -->
  <path d="M 80 92 C 70 78 62 62 58 46 C 56 36 60 28 66 30 C 72 32 76 44 78 58 C 80 72 82 84 88 94 Z" fill="url(#sil)"/>

  <!-- Fingertips of raised arm -->
  <ellipse cx="60" cy="34" rx="7" ry="5" transform="rotate(-35 60 34)" fill="url(#sil)"/>
</svg>
