<svg width="512" height="512" viewBox="0 0 512 512" fill="none" xmlns="http://www.w3.org/2000/svg">
  <defs>
    <linearGradient id="bg" x1="0" y1="0" x2="512" y2="512" gradientUnits="userSpaceOnUse">
      <stop stop-color="#1a0000"/>
      <stop offset="1" stop-color="#050000"/>
    </linearGradient>
    <linearGradient id="sil" x1="256" y1="40" x2="256" y2="480" gradientUnits="userSpaceOnUse">
      <stop stop-color="#FFD700"/>
      <stop offset="1" stop-color="#8B0000"/>
    </linearGradient>
    <radialGradient id="glow" cx="256" cy="256" r="250" gradientUnits="userSpaceOnUse">
      <stop stop-color="#8B0000" stop-opacity="0.3"/>
      <stop offset="1" stop-color="#8B0000" stop-opacity="0"/>
    </radialGradient>
  </defs>
  <rect width="512" height="512" rx="102" fill="url(#bg)"/>
  <rect width="512" height="512" rx="102" fill="url(#glow)"/>
  <!-- Woman silhouette kneeling, side view -->
  <!-- Head -->
  <circle cx="316" cy="100" r="52" fill="url(#sil)"/>
  <!-- Long flowing hair behind head -->
  <path d="M 284 68 C 232 56 162 68 124 108 C 90 142 90 194 120 228 C 142 256 176 256 198 232 C 170 232 148 204 158 172 C 170 132 216 108 268 120 Z" fill="url(#sil)"/>
  <!-- Neck -->
  <rect x="296" y="148" width="40" height="46" rx="12" fill="url(#sil)"/>
  <!-- Torso / upper body -->
  <path d="M 274 188 C 250 200 228 240 222 292 C 216 332 222 366 240 394 L 358 394 C 376 366 382 332 376 292 C 370 240 348 200 324 188 Z" fill="url(#sil)"/>
  <!-- Bust curve (feminine) -->
  <path d="M 366 228 C 394 252 406 298 394 338 C 388 360 370 378 358 394 L 328 394 C 346 366 364 332 370 298 C 376 264 370 240 352 222 Z" fill="url(#sil)"/>
  <!-- Kneeling legs - thighs going forward -->
  <path d="M 240 394 C 214 400 158 412 136 432 C 118 450 124 474 146 478 L 364 478 C 386 478 398 462 386 446 C 364 416 312 400 280 394 Z" fill="url(#sil)"/>
  <!-- Lower legs folded back (kneeling) -->
  <path d="M 136 432 C 102 432 80 448 80 464 C 80 476 96 482 118 478 L 146 478 C 136 466 126 454 136 432 Z" fill="url(#sil)"/>
  <!-- Arm reaching forward elegantly -->
  <path d="M 240 252 C 204 274 164 314 148 358 C 136 390 148 406 170 400 C 188 394 200 370 216 344 C 234 312 256 276 274 260 Z" fill="url(#sil)"/>
</svg>
