<svg width="512" height="512" viewBox="0 0 512 512" fill="none" xmlns="http://www.w3.org/2000/svg">
  <defs>
    <linearGradient id="bg" x1="0" y1="0" x2="512" y2="512" gradientUnits="userSpaceOnUse">
      <stop stop-color="#160000"/>
      <stop offset="1" stop-color="#060000"/>
    </linearGradient>
    <linearGradient id="g" x1="256" y1="30" x2="256" y2="490" gradientUnits="userSpaceOnUse">
      <stop stop-color="#FFE566"/>
      <stop offset="0.45" stop-color="#FFD700"/>
      <stop offset="1" stop-color="#B06000"/>
    </linearGradient>
    <radialGradient id="gl" cx="256" cy="256" r="252" gradientUnits="userSpaceOnUse">
      <stop stop-color="#8B0000" stop-opacity="0.55"/>
      <stop offset="1" stop-color="#8B0000" stop-opacity="0"/>
    </radialGradient>
  </defs>
  <rect width="512" height="512" rx="102" fill="url(#bg)"/>
  <rect width="512" height="512" rx="102" fill="url(#gl)"/>

  <!-- HAIR: large flowing mass to the LEFT — clear woman differentiator -->
  <path d="M 274 80 C 228 57 162 52 108 74 C 54 97 29 148 34 200 C 39 245 74 274 120 268 C 157 262 182 234 174 200 C 160 216 139 228 125 212 C 109 188 120 154 154 134 C 188 114 228 126 250 160 C 260 134 268 104 274 80 Z" fill="url(#g)"/>

  <!-- HEAD: circle at upper-right -->
  <circle cx="314" cy="108" r="63" fill="url(#g)"/>

  <!-- NECK -->
  <path d="M 281 166 L 283 200 L 323 206 L 326 172 Q 306 182 281 166 Z" fill="url(#g)"/>

  <!-- BODY back-side -->
  <path d="M 317 200 C 300 222 280 258 272 300 C 263 340 260 382 252 422 C 246 450 237 468 232 486 L 278 492 C 285 462 294 432 305 398 C 317 358 329 315 341 278 C 353 244 360 214 354 192 C 344 184 330 185 317 200 Z" fill="url(#g)"/>

  <!-- BUST + FRONT: breast curve visible, clearly feminine -->
  <path d="M 354 194 C 382 219 392 265 382 310 C 372 354 346 390 332 434 C 320 467 318 486 325 496 L 280 492 C 287 462 296 432 308 399 C 320 362 337 323 348 286 C 360 252 363 224 354 194 Z" fill="url(#g)"/>

  <!-- KNEELING LEGS at bottom -->
  <ellipse cx="245" cy="480" rx="48" ry="20" fill="url(#g)"/>
  <ellipse cx="322" cy="485" rx="42" ry="18" fill="url(#g)"/>

  <!-- Ground hint -->
  <path d="M 188 480 Q 280 506 370 485 L 366 498 Q 280 520 192 494 Z" fill="url(#g)" opacity="0.35"/>
</svg>
